<svg width="20" height="20" viewBox="0 0 20 20" fill="none" xmlns="http://www.w3.org/2000/svg">
<path fill-rule="evenodd" clip-rule="evenodd" d="M4.86348 5.73102V11.2764C4.86348 11.7768 4.97281 12.1846 5.21844 12.5985C6.00797 13.9272 8.41457 15.3869 9.99984 16.3216C11.5849 15.3869 13.992 13.9272 14.7811 12.5985C15.0267 12.1846 15.136 11.7768 15.136 11.2764V5.73102C13.2127 5.14688 11.4875 4.45121 9.99981 3.65937C8.51188 4.45121 6.78676 5.14688 4.8634 5.73102H4.86348ZM13.2897 7.36512C13.6095 7.68492 13.6095 8.2082 13.2897 8.52797L9.16922 12.6485C9.00016 12.8176 8.78273 12.8914 8.54566 12.8602C8.30855 12.8289 8.1177 12.7014 7.99813 12.4943L6.57945 10.0371C6.35332 9.64547 6.48875 9.14 6.88043 8.91391C7.27207 8.68777 7.7775 8.8232 8.00363 9.21484L8.83578 10.6562L12.1268 7.36516C12.4466 7.04539 12.9698 7.04539 13.2896 7.36516L13.2897 7.36512ZM9.99977 1.01562C7.40391 2.63633 4.2609 3.55977 2.57129 3.99094V11.2761C2.57129 12.1776 2.78746 12.9934 3.24797 13.7688C4.50953 15.893 7.65254 17.5653 9.99977 18.9844C12.347 17.5653 15.49 15.893 16.7516 13.7688C17.212 12.9934 17.4282 12.1775 17.4282 11.2761V3.99094C15.7386 3.55977 12.5956 2.63633 9.99977 1.01562ZM16.1127 11.2764C16.1127 11.9529 15.9564 12.5317 15.6206 13.097C14.6611 14.713 12.0049 16.2752 10.2474 17.3092C10.1709 17.3539 10.0853 17.3762 9.99992 17.3762C9.91453 17.3762 9.82875 17.3539 9.75223 17.3092C7.99473 16.2752 5.33895 14.713 4.37906 13.097C4.04328 12.5317 3.88691 11.9529 3.88691 11.2764V5.36719C3.88691 5.15043 4.02984 4.95965 4.23777 4.89879C6.33852 4.28312 8.19832 3.53543 9.76504 2.67637C9.91105 2.59613 10.0887 2.59613 10.2347 2.67637C11.8014 3.53543 13.6612 4.28309 15.762 4.89879C15.9698 4.95965 16.1128 5.15043 16.1128 5.36719V11.2764H16.1127Z" fill="#EE2248"/>
</svg>
