<svg width="20" height="20" viewBox="0 0 20 20" fill="none" xmlns="http://www.w3.org/2000/svg">
<path d="M17.672 2.00176C14.5486 1.94576 10.9865 3.57848 8.73173 6.11124C6.57698 6.15191 4.47891 7.03527 2.93419 8.57999C2.84419 8.66866 2.81218 8.80134 2.85152 8.92134C2.89152 9.04201 2.99552 9.12935 3.12086 9.14735L5.69029 9.51536L5.37294 9.87071C5.25494 10.0027 5.26094 10.2034 5.38627 10.3287L9.67109 14.6135C9.73576 14.6782 9.8211 14.7109 9.9071 14.7109C9.98644 14.7109 10.0658 14.6829 10.1291 14.6262L10.4845 14.3089L10.8525 16.8783C10.8705 17.0036 10.9691 17.0956 11.0885 17.1356C11.1191 17.1456 11.1511 17.1503 11.1838 17.1503C11.2785 17.1503 11.3752 17.109 11.4418 17.043C12.9652 15.5196 13.8486 13.4215 13.8892 11.2668C16.4247 9.00734 18.0707 5.44655 17.9981 2.32711C17.9934 2.14977 17.85 2.00643 17.672 2.00176ZM14.5999 7.75663C14.2753 8.08131 13.8486 8.24398 13.4212 8.24398C12.9939 8.24398 12.5672 8.08131 12.2425 7.75663C11.5932 7.10661 11.5932 6.04924 12.2425 5.39922C12.8925 4.74919 13.9499 4.74919 14.5999 5.39922C15.25 6.04924 15.25 7.10728 14.5999 7.75663Z" fill="#EE2248"/>
<path d="M3.81561 13.2702C3.10226 13.9836 2.12289 17.2064 2.01355 17.5711C1.97822 17.6884 2.01088 17.8157 2.09689 17.9024C2.16089 17.9664 2.24556 18.0004 2.3329 18.0004C2.3649 18.0004 2.3969 17.9957 2.4289 17.9864C2.79358 17.8771 6.01636 16.8977 6.72972 16.1843C7.53308 15.381 7.53308 14.0736 6.72972 13.2702C5.92569 12.4669 4.61898 12.4675 3.81561 13.2702Z" fill="#EE2248"/>
</svg>
