<svg width="20" height="20" viewBox="0 0 20 20" fill="none" xmlns="http://www.w3.org/2000/svg">
<path d="M9 12C11.7572 12 14 9.75716 14 7C14 4.24284 11.7572 2 9 2C6.24284 2 4 4.24284 4 7C4 9.75716 6.24284 12 9 12ZM9.16666 7.33334H8.83331C8.19009 7.33334 7.66666 6.80991 7.66666 6.16669C7.66666 5.5805 8.10272 5.09856 8.66666 5.01688V4.66666C8.66666 4.48241 8.81575 4.33331 9 4.33331C9.18425 4.33331 9.33334 4.48241 9.33334 4.66666V5H10C10.1842 5 10.3333 5.14909 10.3333 5.33334C10.3333 5.51759 10.1842 5.66669 10 5.66669H8.83334C8.55763 5.66669 8.33334 5.89097 8.33334 6.16669C8.33334 6.44241 8.55763 6.66669 8.83334 6.66669H9.16669C9.80991 6.66669 10.3333 7.19013 10.3333 7.83334C10.3333 8.41953 9.89728 8.90147 9.33334 8.98316V9.33334C9.33334 9.51759 9.18425 9.66669 9 9.66669C8.81575 9.66669 8.66666 9.51759 8.66666 9.33334V9H8C7.81575 9 7.66666 8.85091 7.66666 8.66666C7.66666 8.48241 7.81575 8.33331 8 8.33331H9.16666C9.44237 8.33331 9.66666 8.10903 9.66666 7.83331C9.66666 7.55762 9.44237 7.33334 9.16666 7.33334Z" fill="#EE2248"/>
<path d="M15.3332 14.6667C14.9647 14.6667 14.6665 14.9652 14.6665 15.3334V15.8044L11.1203 12.5114C10.882 12.2917 10.5226 12.2732 10.2667 12.4669L8.0382 14.1378L5.11242 11.5046C4.83833 11.2582 4.41776 11.281 4.17101 11.5541C3.92492 11.8279 3.94705 12.2494 4.22048 12.4955L7.55383 15.4955C7.7908 15.709 8.14626 15.7237 8.39955 15.5333L10.6209 13.8676L13.6353 16.6667H13.3331C12.9646 16.6667 12.6665 16.9652 12.6665 17.3334C12.6665 17.7015 12.9647 18 13.3332 18H15.3332C15.7017 18 15.9998 17.7015 15.9998 17.3334V15.3334C15.9998 14.9652 15.7016 14.6667 15.3332 14.6667Z" fill="#EE2248"/>
</svg>
