<svg width="20" height="20" viewBox="0 0 20 20" fill="none" xmlns="http://www.w3.org/2000/svg">
<path d="M14.3399 5.94112C14.523 6.12418 14.8198 6.12418 15.0028 5.94112L16.1077 4.83628C16.2907 4.65321 16.2907 4.35643 16.1077 4.17337C15.9246 3.99031 15.6278 3.99031 15.4448 4.17337L14.3399 5.27821C14.1569 5.46128 14.1569 5.75806 14.3399 5.94112Z" fill="#EE2248"/>
<path d="M14.8818 7.27777C14.9488 7.52783 15.2058 7.67624 15.4559 7.60924L16.9652 7.20483C17.2152 7.13783 17.3636 6.8808 17.2966 6.63074C17.2296 6.38068 16.9726 6.23227 16.7225 6.2993L15.2133 6.70371C14.9632 6.77068 14.8148 7.02771 14.8818 7.27777Z" fill="#EE2248"/>
<path d="M13.0033 5.39965C13.2534 5.46665 13.5104 5.31824 13.5774 5.06818L13.9818 3.55893C14.0488 3.30887 13.9004 3.05184 13.6504 2.98484C13.4003 2.91784 13.1433 3.06624 13.0763 3.31631L12.6719 4.82556C12.6048 5.07562 12.7532 5.33265 13.0033 5.39965Z" fill="#EE2248"/>
<path d="M16.9453 8.59375H11.5424C11.2342 8.59375 11.0098 8.30141 11.0896 8.00369L11.6338 5.97275C11.7846 5.41013 11.4507 4.83178 10.888 4.68103C10.3254 4.53028 9.74709 4.86419 9.59631 5.42681L9.33731 6.39338C8.98959 7.69125 7.81344 8.59375 6.46975 8.59375H5.125V15.7812H5.98438L6.21875 16.0938C6.66138 16.6839 7.35603 17.0312 8.09375 17.0312H12.1953C12.7778 17.0312 13.25 16.5591 13.25 15.9766C13.25 15.3941 12.7778 14.9219 12.1953 14.9219H12.8203C13.4028 14.9219 13.875 14.4497 13.875 13.8672C13.875 13.2847 13.4028 12.8125 12.8203 12.8125H13.4453C14.0278 12.8125 14.5 12.3403 14.5 11.7578C14.5 11.1753 14.0278 10.7031 13.4453 10.7031H16.9453C17.5278 10.7031 18 10.2309 18 9.64844C18 9.06594 17.5278 8.59375 16.9453 8.59375Z" fill="#EE2248"/>
<path d="M3.71875 7.65625H2.46875C2.20987 7.65625 2 7.86612 2 8.125V16.25C2 16.5089 2.20987 16.7188 2.46875 16.7188H3.71875C3.97763 16.7188 4.1875 16.5089 4.1875 16.25V8.125C4.1875 7.86612 3.97763 7.65625 3.71875 7.65625Z" fill="#EE2248"/>
</svg>
