<svg width="56" height="56" viewBox="0 0 56 56" fill="none" xmlns="http://www.w3.org/2000/svg">
<g clip-path="url(#clip0_426_226)">
<path d="M3.5 26.25H36.75C38.675 26.25 40.25 27.825 40.25 29.75V52.5C40.25 54.425 38.675 56 36.75 56H3.5C1.575 56 0 54.425 0 52.5V29.75C0 27.825 1.575 26.25 3.5 26.25Z" fill="#50D992"/>
<path d="M0 30.625H40.25V39.375H0V30.625Z" fill="#00BE75"/>
<path d="M40.25 29.75V30.625H14V26.25H36.75C38.675 26.25 40.25 27.825 40.25 29.75Z" fill="#00BE75"/>
<path d="M40.25 30.625V39.375H19.25C16.3625 39.375 14 37.0125 14 34.125V30.625H40.25Z" fill="#00AA52"/>
<path d="M56 11.375V34.125C56 36.05 54.425 37.625 52.5 37.625H19.25C17.325 37.625 15.75 36.05 15.75 34.125V11.375C15.75 9.45 17.325 7.875 19.25 7.875H52.5C54.425 7.875 56 9.45 56 11.375Z" fill="#93E6BB"/>
<path d="M43.75 11.375H50.75C51.7125 11.375 52.5 12.1625 52.5 13.125V16.625C52.5 17.5875 51.7125 18.375 50.75 18.375H43.75C42.7875 18.375 42 17.5875 42 16.625V13.125C42 12.1625 42.7875 11.375 43.75 11.375Z" fill="#FFAC00"/>
<path d="M28.875 12.25C28.875 12.775 28.525 13.125 28 13.125H19.25C18.725 13.125 18.375 12.775 18.375 12.25C18.375 11.725 18.725 11.375 19.25 11.375H28C28.525 11.375 28.875 11.725 28.875 12.25Z" fill="#50D992"/>
<path d="M19.25 11.375C18.725 11.375 18.375 11.725 18.375 12.25C18.375 12.775 18.725 13.125 19.25 13.125H22.4C22.4875 12.5125 22.575 11.9875 22.6625 11.375H19.25Z" fill="#00BE75"/>
<path d="M22.75 7.87495C22.75 9.01245 22.75 10.2374 22.6625 11.3749H19.25C18.725 11.3749 18.375 11.7249 18.375 12.2499C18.375 12.7749 18.725 13.1249 19.25 13.1249H22.4C21.6125 17.4124 19.1625 21.1749 15.75 23.7124V16.0124C17.5875 13.0374 17.5 10.5874 17.5 8.31245C18.55 7.69995 19.25 7.87495 22.75 7.87495Z" fill="#50D992"/>
<path d="M24.5 16.625H28C28.525 16.625 28.875 16.275 28.875 15.75C28.875 15.225 28.525 14.875 28 14.875H24.5C23.975 14.875 23.625 15.225 23.625 15.75C23.625 16.275 23.975 16.625 24.5 16.625Z" fill="#50D992"/>
<path d="M20.125 5.25V9.8875C20.125 16.0125 16.275 21.525 10.5 23.625C4.725 21.525 0.875 16.0125 0.875 9.8875V5.25L10.5 0.875L20.125 5.25Z" fill="#FFAC00"/>
<path d="M10.2375 24.4125C4.1125 22.225 0 16.3625 0 9.88748V5.24998C0 4.89998 0.175 4.63748 0.525 4.46248L10.15 0.0874756C10.4125 -2.44118e-05 10.675 -2.44118e-05 10.85 0.0874756L20.475 4.46248C20.825 4.63748 21 4.89998 21 5.24998V9.88748C21 16.3625 16.8875 22.225 10.7625 24.5C10.5875 24.5 10.4125 24.5 10.2375 24.4125ZM1.75 5.77498V9.88748C1.75 15.575 5.25 20.65 10.5 22.6625C15.75 20.5625 19.25 15.4875 19.25 9.88748V5.77498L10.5 1.83748L1.75 5.77498Z" fill="#EA9706"/>
<path d="M35.875 23.625H34.125C33.6 23.625 33.25 23.275 33.25 22.75C33.25 22.225 33.6 21.875 34.125 21.875H35.875C36.4 21.875 36.75 22.225 36.75 22.75C36.75 23.275 36.4 23.625 35.875 23.625Z" fill="#50D992"/>
<path d="M41.125 23.625H39.375C38.85 23.625 38.5 23.275 38.5 22.75C38.5 22.225 38.85 21.875 39.375 21.875H41.125C41.65 21.875 42 22.225 42 22.75C42 23.275 41.65 23.625 41.125 23.625Z" fill="#50D992"/>
<path d="M46.375 23.625H44.625C44.1 23.625 43.75 23.275 43.75 22.75C43.75 22.225 44.1 21.875 44.625 21.875H46.375C46.9 21.875 47.25 22.225 47.25 22.75C47.25 23.275 46.9 23.625 46.375 23.625Z" fill="#50D992"/>
<path d="M51.625 23.625H49.875C49.35 23.625 49 23.275 49 22.75C49 22.225 49.35 21.875 49.875 21.875H51.625C52.15 21.875 52.5 22.225 52.5 22.75C52.5 23.275 52.15 23.625 51.625 23.625Z" fill="#50D992"/>
<path d="M49.8751 34.125C48.2126 34.125 49.0001 30.625 51.6251 30.625C52.1501 30.625 52.5001 30.975 52.5001 31.5C52.5001 32.025 52.1501 32.375 51.6251 32.375C51.1001 32.375 50.7501 32.725 50.7501 33.25C50.7501 33.775 50.4001 34.125 49.8751 34.125Z" fill="#50D992"/>
<path d="M46.375 34.125C45.85 34.125 45.5 33.775 45.5 33.25C45.5 29.8375 48.2125 27.125 51.625 27.125C52.15 27.125 52.5 27.475 52.5 28C52.5 28.525 52.15 28.875 51.625 28.875C49.175 28.875 47.25 30.8 47.25 33.25C47.25 33.775 46.9 34.125 46.375 34.125Z" fill="#50D992"/>
<path d="M5.95 12.8625C5.6 12.5125 5.6 11.9875 5.95 11.6375C6.3 11.2875 6.825 11.2875 7.175 11.6375L9.1875 13.65L13.825 9.0125C14.175 8.6625 14.7 8.6625 15.05 9.0125C15.4 9.3625 15.4 9.8875 15.05 10.2375L9.8 15.4875C9.45 15.8375 8.925 15.8375 8.575 15.4875C8.575 15.4875 7.525 14.4375 5.95 12.8625Z" fill="#F3F3F3"/>
<path d="M4.375 42H23.625C24.5875 42 25.375 42.7875 25.375 43.75V45.5C25.375 46.4625 24.5875 47.25 23.625 47.25H4.375C3.4125 47.25 2.625 46.4625 2.625 45.5V43.75C2.625 42.7875 3.4125 42 4.375 42Z" fill="#F3F3F3"/>
<path d="M7 45.5H5.25C4.725 45.5 4.375 45.15 4.375 44.625C4.375 44.1 4.725 43.75 5.25 43.75H7C7.525 43.75 7.875 44.1 7.875 44.625C7.875 45.15 7.525 45.5 7 45.5Z" fill="#D9D9D9"/>
<path d="M12.25 45.5H10.5C9.975 45.5 9.625 45.15 9.625 44.625C9.625 44.1 9.975 43.75 10.5 43.75H12.25C12.775 43.75 13.125 44.1 13.125 44.625C13.125 45.15 12.775 45.5 12.25 45.5Z" fill="#D9D9D9"/>
<path d="M17.5 45.5H15.75C15.225 45.5 14.875 45.15 14.875 44.625C14.875 44.1 15.225 43.75 15.75 43.75H17.5C18.025 43.75 18.375 44.1 18.375 44.625C18.375 45.15 18.025 45.5 17.5 45.5Z" fill="#D9D9D9"/>
<path d="M22.75 45.5H21C20.475 45.5 20.125 45.15 20.125 44.625C20.125 44.1 20.475 43.75 21 43.75H22.75C23.275 43.75 23.625 44.1 23.625 44.625C23.625 45.15 23.275 45.5 22.75 45.5Z" fill="#D9D9D9"/>
<path d="M30.7125 33.25H21.7875C20.9125 33.25 20.125 32.55 20.125 31.5875V27.825C20.125 26.95 20.825 26.1625 21.7875 26.1625H30.8C31.675 26.1625 32.4625 26.8625 32.4625 27.825V31.5875C32.375 32.55 31.675 33.25 30.7125 33.25Z" fill="#50D992"/>
</g>
<defs>
<clipPath id="clip0_426_226">
<rect width="56" height="56" fill="white"/>
</clipPath>
</defs>
</svg>
