<svg width="20" height="20" viewBox="0 0 20 20" fill="none" xmlns="http://www.w3.org/2000/svg">
<path d="M3.125 5V11.875C3.125 11.9687 3.15625 12.0625 3.1875 12.125C3.28125 12.3125 5.21875 16.4375 9.75 18.375C9.84375 18.4062 9.90625 18.4375 10 18.4375C10.0938 18.4375 10.1562 18.4062 10.25 18.375C14.7812 16.4375 16.75 12.3125 16.8125 12.125C16.8438 12.0312 16.875 11.9687 16.875 11.875V5C16.875 4.71875 16.6875 4.46875 16.4062 4.40625C14.0312 3.8125 10.375 1.40625 10.3437 1.375C10.125 1.25 9.875 1.21875 9.65625 1.375C9.625 1.40625 5.96875 3.8125 3.59375 4.40625C3.3125 4.46875 3.125 4.71875 3.125 5ZM4.375 5.46875C6.46875 4.8125 9.0625 3.21875 10 2.625C10.9375 3.21875 13.5312 4.8125 15.625 5.46875V11.7187C15.2812 12.375 13.5312 15.5 10 17.125C6.46875 15.5 4.71875 12.375 4.375 11.7187V5.46875Z" fill="#EE2248"/>
<path d="M8.9375 12C9.0625 12.125 9.21875 12.1875 9.375 12.1875C9.53125 12.1875 9.6875 12.125 9.8125 12L12.9062 8.90625C13.1562 8.65625 13.1562 8.28125 12.9062 8.03125C12.6562 7.78125 12.2812 7.78125 12.0312 8.03125L9.375 10.6875L7.96875 9.28125C7.71875 9.03125 7.34375 9.03125 7.09375 9.28125C6.84375 9.53125 6.84375 9.90625 7.09375 10.1562L8.9375 12Z" fill="#EE2248"/>
</svg>
