<svg width="20" height="20" viewBox="0 0 20 20" fill="none" xmlns="http://www.w3.org/2000/svg">
<path d="M17.1377 9.6625C16.7016 9.22023 16.1892 8.86029 15.6252 8.6C16.0401 8.25699 16.3686 7.82133 16.5844 7.32811C16.8001 6.8349 16.8969 6.29792 16.8671 5.76042C16.8373 5.22292 16.6817 4.69993 16.4128 4.23358C16.1439 3.76723 15.7692 3.37056 15.319 3.0755C14.8687 2.78045 14.3554 2.59527 13.8205 2.53488C13.2856 2.47449 12.744 2.54058 12.2393 2.72782C11.7345 2.91506 11.2809 3.21822 10.9148 3.61288C10.5486 4.00755 10.2803 4.48267 10.1315 5H9.86897C9.72009 4.48267 9.45179 4.00755 9.08568 3.61288C8.71958 3.21822 8.2659 2.91506 7.76119 2.72782C7.25648 2.54058 6.71484 2.47449 6.17992 2.53488C5.64499 2.59527 5.13173 2.78045 4.68147 3.0755C4.23121 3.37056 3.85653 3.76723 3.58763 4.23358C3.31873 4.69993 3.16311 5.22292 3.13331 5.76042C3.10352 6.29792 3.20038 6.8349 3.41609 7.32811C3.6318 7.82133 3.96033 8.25699 4.37522 8.6C3.46345 9.01402 2.69062 9.6825 2.14957 10.5251C1.60852 11.3677 1.32228 12.3486 1.32522 13.35C1.32522 13.5672 1.3681 13.7823 1.45141 13.9829C1.53472 14.1835 1.65682 14.3656 1.8107 14.5189C1.96458 14.6722 2.14721 14.7936 2.34812 14.8762C2.54903 14.9588 2.76426 15.0008 2.98147 15H4.85647C4.80615 15.2805 4.78105 15.565 4.78147 15.85C4.78146 16.2855 4.95358 16.7033 5.26031 17.0123C5.56705 17.3214 5.98353 17.4967 6.41897 17.5H13.5815C14.018 17.4983 14.4361 17.3238 14.7442 17.0145C15.0522 16.7053 15.2252 16.2865 15.2252 15.85C15.2256 15.565 15.2005 15.2805 15.1502 15H17.0252C17.4617 14.9983 17.8798 14.8238 18.1879 14.5145C18.496 14.2053 18.669 13.7865 18.669 13.35C18.67 12.6647 18.5352 11.9859 18.2723 11.353C18.0095 10.7201 17.6239 10.1455 17.1377 9.6625ZM13.4377 3.75C14.0179 3.75 14.5743 3.98047 14.9845 4.3907C15.3947 4.80094 15.6252 5.35734 15.6252 5.9375C15.6252 6.51766 15.3947 7.07406 14.9845 7.4843C14.5743 7.89453 14.0179 8.125 13.4377 8.125C13.3821 7.50913 13.1611 6.91974 12.798 6.41916C12.4349 5.91858 11.9433 5.52542 11.3752 5.28125C11.5153 4.84213 11.7897 4.45809 12.1598 4.18334C12.5298 3.90859 12.9769 3.75701 13.4377 3.75ZM12.1877 8.4375C12.1877 8.87015 12.0594 9.29308 11.8191 9.65281C11.5787 10.0125 11.2371 10.2929 10.8373 10.4585C10.4376 10.6241 9.99779 10.6674 9.57346 10.583C9.14912 10.4986 8.75935 10.2902 8.45342 9.9843C8.14749 9.67837 7.93916 9.28859 7.85475 8.86426C7.77034 8.43993 7.81366 8.00009 7.97923 7.60038C8.1448 7.20067 8.42518 6.85903 8.78491 6.61866C9.14464 6.37829 9.56757 6.25 10.0002 6.25C10.5804 6.25 11.1368 6.48047 11.547 6.8907C11.9572 7.30094 12.1877 7.85734 12.1877 8.4375ZM4.37522 5.9375C4.36942 5.41232 4.55331 4.90269 4.89311 4.50221C5.2329 4.10173 5.70579 3.8373 6.2249 3.7575C6.74401 3.67769 7.27448 3.78787 7.71888 4.06779C8.16328 4.34772 8.49175 4.77858 8.64397 5.28125C8.07584 5.52542 7.58425 5.91858 7.22119 6.41916C6.85813 6.91974 6.6371 7.50913 6.58147 8.125C6.29263 8.12748 6.00616 8.07272 5.73859 7.9639C5.47102 7.85508 5.22765 7.69434 5.02254 7.49096C4.81742 7.28759 4.65461 7.0456 4.54351 6.77897C4.4324 6.51234 4.37521 6.22635 4.37522 5.9375ZM2.98147 13.75C2.87647 13.7484 2.77633 13.7055 2.70266 13.6307C2.62899 13.5558 2.58771 13.455 2.58772 13.35C2.58689 12.8278 2.68915 12.3105 2.88862 11.8279C3.08809 11.3452 3.38086 10.9067 3.75013 10.5374C4.11941 10.1681 4.55794 9.87537 5.04058 9.6759C5.52322 9.47643 6.04048 9.37418 6.56272 9.375H6.70022C6.8926 10.0502 7.28744 10.65 7.83147 11.0938C6.6672 11.6329 5.73868 12.5769 5.21897 13.75H2.98147ZM13.6065 16.25H6.41897C6.31397 16.2484 6.21382 16.2055 6.14016 16.1307C6.06649 16.0558 6.02521 15.955 6.02522 15.85C6.02522 14.7958 6.44401 13.7847 7.18947 13.0393C7.93493 12.2938 8.94598 11.875 10.0002 11.875C11.0545 11.875 12.0655 12.2938 12.811 13.0393C13.5564 13.7847 13.9752 14.7958 13.9752 15.85C13.9752 15.955 13.9339 16.0558 13.8603 16.1307C13.7866 16.2055 13.6865 16.2484 13.5815 16.25H13.6065ZM17.044 13.75H14.7815C14.2605 12.5793 13.3321 11.6376 12.169 11.1C12.7141 10.6546 13.109 10.0524 13.3002 9.375H13.4377C14.4914 9.37665 15.5015 9.79598 16.2466 10.5411C16.9917 11.2862 17.4111 12.2963 17.4127 13.35C17.4127 13.455 17.3714 13.5558 17.2978 13.6307C17.2241 13.7055 17.124 13.7484 17.019 13.75H17.044Z" fill="#EE2248"/>
</svg>
