<svg width="20" height="20" viewBox="0 0 20 20" fill="none" xmlns="http://www.w3.org/2000/svg">
<path d="M5.50731 16.495C4.47543 17.0875 3.3123 17.3 2.62355 17.3762C2.6998 16.6875 2.9123 15.5244 3.50418 14.4919C3.65918 14.2225 3.56605 13.8787 3.29668 13.7237C3.0248 13.5681 2.68293 13.6625 2.52855 13.9319C1.46855 15.7806 1.45605 17.8919 1.45605 17.9812C1.45605 18.2919 1.70793 18.5437 2.01855 18.5437C2.10793 18.5437 4.21918 18.5312 6.06793 17.4712C6.3373 17.3162 6.43043 16.9731 6.27543 16.7031C6.12168 16.4337 5.77855 16.34 5.50731 16.495Z" fill="#EE2248"/>
<path d="M19.3179 2.04687C19.3248 1.6775 19.1854 1.33125 18.9254 1.07187C18.666 0.8125 18.291 0.684375 17.9523 0.68125C16.3948 0.710625 12.1935 1.1575 8.21852 4.72563C7.50977 4.45 6.44164 4.04062 5.63102 4.145C4.43852 4.29812 2.67664 5.92063 0.951018 7.65188C0.722268 7.88125 0.631019 8.20625 0.707894 8.52125C0.784144 8.8375 1.01539 9.08563 1.32539 9.185L4.06914 10.0663C3.86227 10.4438 3.65852 10.83 3.46164 11.2375C3.21414 11.75 3.31914 12.3656 3.72289 12.7681L7.23102 16.2763C7.48852 16.5344 7.83352 16.6706 8.18164 16.6706C8.37852 16.6706 8.57727 16.6275 8.76227 16.5381C9.16977 16.3413 9.55602 16.1375 9.93227 15.9313L10.8141 18.6744C10.9135 18.9844 11.1616 19.2156 11.4785 19.2925C11.5516 19.31 11.6254 19.3188 11.6991 19.3188C11.9398 19.3188 12.1716 19.2244 12.3479 19.0488C14.0791 17.3231 15.7016 15.5619 15.8541 14.37C15.9598 13.5519 15.5491 12.49 15.2735 11.7813C18.841 7.80625 19.2885 3.605 19.3179 2.04687ZM1.97977 8.21438C2.89539 7.3025 4.88414 5.37563 5.77414 5.26125C6.17102 5.21063 6.79414 5.39875 7.32039 5.58938C6.39102 6.55 5.48852 7.70125 4.64727 9.07063L1.97977 8.21438ZM8.27289 15.525C8.19352 15.5638 8.09164 15.5463 8.02664 15.4813L4.51789 11.9725C4.45352 11.9081 4.43539 11.8069 4.47477 11.7262C8.84414 2.67562 15.9116 1.84562 17.9741 1.80687H17.9791C18.0535 1.80687 18.1023 1.84 18.131 1.86875C18.1548 1.8925 18.1954 1.945 18.1941 2.02625C18.1541 4.08875 17.3235 11.1563 8.27289 15.525ZM14.7385 14.2263C14.6241 15.1156 12.6973 17.105 11.7854 18.02L10.9279 15.3531C12.2985 14.5119 13.4498 13.6088 14.4104 12.6794C14.6016 13.205 14.7898 13.8269 14.7385 14.2263Z" fill="#EE2248"/>
<path d="M15.0798 8.25875C15.9998 7.33813 15.9998 5.84063 15.0798 4.92C14.1873 4.02875 12.6323 4.02875 11.7411 4.92C11.2954 5.36563 11.0498 5.95875 11.0498 6.58938C11.0498 7.22 11.2961 7.81313 11.7411 8.25875C12.1867 8.70438 12.7798 8.95 13.4104 8.95C14.0411 8.95 14.6336 8.70438 15.0798 8.25875ZM14.2836 7.46313C13.8167 7.93063 13.0023 7.93063 12.5367 7.46313C12.3029 7.23 12.1742 6.91938 12.1742 6.58938C12.1742 6.25938 12.3029 5.94938 12.5367 5.71563C12.7698 5.4825 13.0798 5.35375 13.4098 5.35375C13.7392 5.35375 14.0498 5.4825 14.2829 5.71563C14.7654 6.1975 14.7654 6.98125 14.2836 7.46313Z" fill="#EE2248"/>
</svg>
