<svg width="20" height="20" viewBox="0 0 20 20" fill="none" xmlns="http://www.w3.org/2000/svg">
<g clip-path="url(#clip0_476_109)">
<path d="M8.739 4.87344C6.86295 5.31086 5.35275 6.79863 4.89158 8.66371C4.42896 10.5348 4.95842 12.4419 6.30795 13.7653C6.78529 14.2335 7.07033 14.9838 7.07033 15.7725V15.8984C7.07033 16.4178 7.29693 16.8852 7.65627 17.2072V18.2422C7.65627 19.2114 8.44482 20 9.41408 20H10.586C11.5552 20 12.3438 19.2114 12.3438 18.2422V17.2072C12.7031 16.8852 12.9297 16.4179 12.9297 15.8984V15.7702C12.9297 14.9935 13.23 14.2289 13.7329 13.7249C14.7263 12.7293 15.2735 11.4064 15.2735 10C15.2735 6.63754 12.1575 4.07664 8.739 4.87344ZM11.1719 18.2422C11.1719 18.5653 10.909 18.8281 10.586 18.8281H9.41408C9.091 18.8281 8.82814 18.5653 8.82814 18.2422V17.6562H11.1719V18.2422ZM12.9034 12.8971C12.1754 13.6267 11.7578 14.6739 11.7578 15.7702V15.8984C11.7578 16.2215 11.495 16.4844 11.1719 16.4844H8.82814C8.50506 16.4844 8.24221 16.2215 8.24221 15.8984V15.7725C8.24221 14.6593 7.83623 13.6227 7.12842 12.9286C6.07803 11.8986 5.66713 10.4094 6.02916 8.945C6.38561 7.50332 7.55373 6.35309 9.0051 6.01473C11.6876 5.38922 14.1016 7.39172 14.1016 10C14.1016 11.0939 13.676 12.1228 12.9034 12.8971Z" fill="#EE2248"/>
<path d="M5.44223 4.61383L3.78492 2.95656C3.55613 2.72774 3.18512 2.72774 2.95629 2.95656C2.72746 3.18539 2.72746 3.55637 2.95629 3.7852L4.61359 5.44246C4.84238 5.67129 5.21344 5.67129 5.44223 5.44246C5.67105 5.21363 5.67105 4.84266 5.44223 4.61383Z" fill="#EE2248"/>
<path d="M2.96875 9.41406H0.585938C0.262344 9.41406 0 9.67641 0 10C0 10.3236 0.262344 10.5859 0.585938 10.5859H2.96875C3.29234 10.5859 3.55469 10.3236 3.55469 10C3.55469 9.67641 3.29234 9.41406 2.96875 9.41406Z" fill="#EE2248"/>
<path d="M19.4141 9.41406H17.0312C16.7077 9.41406 16.4453 9.67641 16.4453 10C16.4453 10.3236 16.7077 10.5859 17.0312 10.5859H19.4141C19.7377 10.5859 20 10.3236 20 10C20 9.67641 19.7377 9.41406 19.4141 9.41406Z" fill="#EE2248"/>
<path d="M17.0433 2.95656C16.8146 2.72774 16.4435 2.72774 16.2147 2.95656L14.5574 4.61383C14.3285 4.84262 14.3285 5.21363 14.5574 5.44246C14.7862 5.67129 15.1572 5.67129 15.386 5.44246L17.0433 3.7852C17.2721 3.55641 17.2721 3.18539 17.0433 2.95656Z" fill="#EE2248"/>
<path d="M10 0C9.67641 0 9.41406 0.262344 9.41406 0.585938V2.96875C9.41406 3.29234 9.67641 3.55469 10 3.55469C10.3236 3.55469 10.5859 3.29234 10.5859 2.96875V0.585938C10.5859 0.262344 10.3236 0 10 0Z" fill="#EE2248"/>
<path d="M9.99977 7.07031C9.75891 7.07031 9.51356 7.09918 9.27094 7.15602C8.26059 7.39184 7.41477 8.22352 7.16629 9.22551C7.0884 9.53961 7.27985 9.85734 7.59391 9.93527C7.90805 10.0132 8.22578 9.82164 8.30368 9.50762C8.44668 8.93113 8.95395 8.4334 9.53778 8.29711C9.69332 8.26066 9.84879 8.24219 9.99977 8.24219C10.3234 8.24219 10.5857 7.97984 10.5857 7.65625C10.5857 7.33266 10.3234 7.07031 9.99977 7.07031Z" fill="#EE2248"/>
</g>
<defs>
<clipPath id="clip0_476_109">
<rect width="20" height="20" fill="white"/>
</clipPath>
</defs>
</svg>
