<svg width="24" height="24" viewBox="0 0 24 24" fill="none" xmlns="http://www.w3.org/2000/svg">
<g clip-path="url(#clip0_478_3806)">
<path d="M22.8991 21.813H1.0907C0.48816 21.813 0 22.3011 0 22.9042C0 23.5062 0.48816 23.9944 1.0907 23.9944H22.8986C23.5011 23.9944 23.9893 23.5062 23.9893 22.9042C23.9888 22.3011 23.5006 21.813 22.8991 21.813Z" fill="#EE2248"/>
<path d="M2.45349 18.9775C1.85095 18.9775 1.36279 19.4656 1.36279 20.0682C1.36279 20.6707 1.85095 21.1594 2.45349 21.1594H21.5356C22.1382 21.1594 22.6263 20.6707 22.6263 20.0682C22.6263 19.4656 22.1382 18.9775 21.5356 18.9775H21.2635V9.16321H21.5356C21.8374 9.16321 22.0805 8.91913 22.0805 8.61837C22.0805 8.31761 21.8364 8.07353 21.5356 8.07353H2.45349C2.15222 8.07353 1.90865 8.31761 1.90865 8.61837C1.90865 8.91913 2.15273 9.16321 2.45349 9.16321H2.72617V18.977L2.45349 18.9775ZM19.0821 9.16321V18.977H15.811V9.16321H19.0821ZM13.6296 9.16321V18.977H10.3585V9.16321H13.6296ZM4.90655 9.16321H8.17763V18.977H4.90655V9.16321Z" fill="#EE2248"/>
<path d="M1.09072 7.09313H22.8986C22.9022 7.09313 22.9063 7.09313 22.9093 7.09313C23.5124 7.09313 24 6.60497 24 6.00243C24 5.52346 23.6916 5.11751 23.2632 4.97045L12.443 0.101617C12.1586 -0.0260396 11.8333 -0.0260396 11.5484 0.101617L0.643411 5.00824C0.174145 5.21964 -0.0837222 5.72924 0.0245308 6.2317C0.132273 6.73416 0.576519 7.09313 1.09072 7.09313Z" fill="#EE2248"/>
</g>
<defs>
<clipPath id="clip0_478_3806">
<rect width="24" height="24" fill="white"/>
</clipPath>
</defs>
</svg>
