<svg width="20" height="20" viewBox="0 0 20 20" fill="none" xmlns="http://www.w3.org/2000/svg">
<path d="M3.125 5.00008V11.8751C3.125 11.9688 3.15625 12.0626 3.1875 12.1251C3.28125 12.3126 5.21875 16.4376 9.75 18.3751C9.84375 18.4063 9.90625 18.4376 10 18.4376C10.0938 18.4376 10.1562 18.4063 10.25 18.3751C14.7812 16.4376 16.75 12.3126 16.8125 12.1251C16.8438 12.0313 16.875 11.9688 16.875 11.8751V5.00008C16.875 4.71883 16.6875 4.46883 16.4062 4.40633C14.0312 3.81258 10.375 1.40633 10.3437 1.37508C10.125 1.25008 9.875 1.21883 9.65625 1.37508C9.625 1.40633 5.96875 3.81258 3.59375 4.40633C3.3125 4.46883 3.125 4.71883 3.125 5.00008ZM4.375 5.46883C6.46875 4.81258 9.0625 3.21883 10 2.62508C10.9375 3.21883 13.5312 4.81258 15.625 5.46883V11.7188C15.2812 12.3751 13.5312 15.5001 10 17.1251C6.46875 15.5001 4.71875 12.3751 4.375 11.7188V5.46883Z" fill="white"/>
<path d="M8.9375 12C9.0625 12.125 9.21875 12.1875 9.375 12.1875C9.53125 12.1875 9.6875 12.125 9.8125 12L12.9062 8.90625C13.1562 8.65625 13.1562 8.28125 12.9062 8.03125C12.6562 7.78125 12.2812 7.78125 12.0312 8.03125L9.375 10.6875L7.96875 9.28125C7.71875 9.03125 7.34375 9.03125 7.09375 9.28125C6.84375 9.53125 6.84375 9.90625 7.09375 10.1562L8.9375 12Z" fill="white"/>
</svg>
